{
 "accessors": [
  {
   "componentType": 5126,
   "type": "VEC3",
   "count": 79200,
   "max": [
    1.4667589664459229,
    1.378262996673584,
    0.038100000470876694
   ],
   "min": [
    -1.4928359985351562,
    0.00029999020625837147,
    -0.038100000470876694
   ],
   "bufferView": 0
  },
  {
   "componentType": 5126,
   "type": "VEC3",
   "count": 79200,
   "bufferView": 1
  },
  {
   "componentType": 5126,
   "type": "VEC2",
   "count": 79200,
   "bufferView": 2
  },
  {
   "componentType": 5125,
   "type": "SCALAR",
   "count": 79200,
   "bufferView": 3
  }
 ],
 "asset": {
  "version": "2.0",
  "generator": "clara.io"
 },
 "bufferViews": [
  {
   "buffer": 0,
   "byteOffset": 0,
   "byteLength": 950400,
   "target": 34962,
   "byteStride": 12
  },
  {
   "buffer": 0,
   "byteOffset": 950400,
   "byteLength": 950400,
   "target": 34962,
   "byteStride": 12
  },
  {
   "buffer": 0,
   "byteOffset": 1900800,
   "byteLength": 633600,
   "target": 34962,
   "byteStride": 8
  },
  {
   "buffer": 0,
   "byteOffset": 2534400,
   "byteLength": 316800,
   "target": 34963
  }
 ],
 "buffers": [
  {
   "byteLength": 2851200,
   "uri": "data:application/octet-stream;base64,"
  }
 ],
 "materials": [
  {
   "name": "chromium_plate",
   "pbrMetallicRoughness": {
    "roughnessFactor": 0.14,
    "metallicFactor": 0
   }
  }
 ],
 "meshes": [
  {
   "primitives": [
    {
     "indices": 3,
     "material": 0,
     "mode": 4,
     "attributes": {
      "POSITION": 0,
      "NORMAL": 1,
      "TEXCOORD_0": 2
     }
    }
   ]
  }
 ],
 "nodes": [
  {
   "name": "k_root",
   "scale": [
    0.009999999776482582,
    0.009999999776482582,
    0.009999999776482582
   ],
   "children": [
    1
   ]
  },
  {
   "name": "|Part1|Root|chromium_plate",
   "mesh": 0
  }
 ],
 "scene": 0,
 "scenes": [
  {
   "nodes": [
    0
   ]
  }
 ]
}