{
 "accessors": [
  {
   "componentType": 5126,
   "type": "VEC3",
   "count": 4115,
   "max": [
    0.04238154739141464,
    0.007203244138509035,
    0.1240304708480835
   ],
   "min": [
    -0.042429059743881226,
    0.0037560921628028154,
    -0.08364777266979218
   ],
   "bufferView": 0
  },
  {
   "componentType": 5126,
   "type": "VEC3",
   "count": 4115,
   "bufferView": 1
  },
  {
   "componentType": 5126,
   "type": "VEC2",
   "count": 4115,
   "bufferView": 2
  },
  {
   "componentType": 5123,
   "type": "SCALAR",
   "count": 10791,
   "bufferView": 3
  },
  {
   "componentType": 5126,
   "type": "VEC3",
   "count": 7706,
   "max": [
    0.12294845283031464,
    0.2710258364677429,
    0.0005791200092062354
   ],
   "min": [
    -0.10786553472280502,
    0.08605944365262985,
    -0.0014477999648079276
   ],
   "bufferView": 4
  },
  {
   "componentType": 5126,
   "type": "VEC3",
   "count": 7706,
   "bufferView": 5
  },
  {
   "componentType": 5126,
   "type": "VEC2",
   "count": 7706,
   "bufferView": 6
  },
  {
   "componentType": 5123,
   "type": "SCALAR",
   "count": 21654,
   "bufferView": 7
  },
  {
   "componentType": 5126,
   "type": "VEC3",
   "count": 11295,
   "max": [
    0.12762907147407532,
    0.013203244656324387,
    0.1293579638004303
   ],
   "min": [
    -0.04659305512905121,
    -4.263390335970313e-20,
    -0.052279215306043625
   ],
   "bufferView": 8
  },
  {
   "componentType": 5126,
   "type": "VEC3",
   "count": 11295,
   "bufferView": 9
  },
  {
   "componentType": 5126,
   "type": "VEC2",
   "count": 11295,
   "bufferView": 10
  },
  {
   "componentType": 5123,
   "type": "SCALAR",
   "count": 38661,
   "bufferView": 11
  },
  {
   "componentType": 5126,
   "type": "VEC3",
   "count": 55701,
   "max": [
    0.10525642335414886,
    0.015203244052827358,
    0.03093242086470127
   ],
   "min": [
    -0.04609936103224754,
    0.005788243841379881,
    -0.09980317205190659
   ],
   "bufferView": 12
  },
  {
   "componentType": 5126,
   "type": "VEC3",
   "count": 55701,
   "bufferView": 13
  },
  {
   "componentType": 5126,
   "type": "VEC2",
   "count": 55701,
   "bufferView": 14
  },
  {
   "componentType": 5123,
   "type": "SCALAR",
   "count": 158064,
   "bufferView": 15
  },
  {
   "componentType": 5126,
   "type": "VEC3",
   "count": 20,
   "max": [
    -0.11599999666213989,
    0.0033491940703243017,
    -0.0010000000474974513
   ],
   "min": [
    -0.12905947864055634,
    -0.0033491940703243017,
    -0.0010000000474974513
   ],
   "bufferView": 16
  },
  {
   "componentType": 5126,
   "type": "VEC3",
   "count": 20,
   "bufferView": 17
  },
  {
   "componentType": 5126,
   "type": "VEC2",
   "count": 20,
   "bufferView": 18
  },
  {
   "componentType": 5121,
   "type": "SCALAR",
   "count": 54,
   "bufferView": 19
  },
  {
   "componentType": 5126,
   "type": "VEC3",
   "count": 327,
   "max": [
    0.09046632051467896,
    0.017290683463215828,
    0.0010160000529140234
   ],
   "min": [
    0.0599873848259449,
    -0.017290683463215828,
    0
   ],
   "bufferView": 20
  },
  {
   "componentType": 5126,
   "type": "VEC3",
   "count": 327,
   "bufferView": 21
  },
  {
   "componentType": 5126,
   "type": "VEC2",
   "count": 327,
   "bufferView": 22
  },
  {
   "componentType": 5123,
   "type": "SCALAR",
   "count": 1209,
   "bufferView": 23
  },
  {
   "componentType": 5126,
   "type": "VEC3",
   "count": 986,
   "max": [
    0.01864149421453476,
    0.015003243461251259,
    0.12776413559913635
   ],
   "min": [
    -0.011269056238234043,
    0.005594395566731691,
    -0.0992032065987587
   ],
   "bufferView": 24
  },
  {
   "componentType": 5126,
   "type": "VEC3",
   "count": 986,
   "bufferView": 25
  },
  {
   "componentType": 5126,
   "type": "VEC2",
   "count": 986,
   "bufferView": 26
  },
  {
   "componentType": 5123,
   "type": "SCALAR",
   "count": 2934,
   "bufferView": 27
  },
  {
   "componentType": 5126,
   "type": "VEC3",
   "count": 737,
   "max": [
    0.011997961439192295,
    0.003000000026077032,
    0.026499999687075615
   ],
   "min": [
    -0.011997961439192295,
    -2.6020852139652106e-18,
    -0.09000000357627869
   ],
   "bufferView": 28
  },
  {
   "componentType": 5126,
   "type": "VEC3",
   "count": 737,
   "bufferView": 29
  },
  {
   "componentType": 5126,
   "type": "VEC2",
   "count": 737,
   "bufferView": 30
  },
  {
   "componentType": 5123,
   "type": "SCALAR",
   "count": 2103,
   "bufferView": 31
  }
 ],
 "asset": {
  "version": "2.0",
  "generator": "clara.io"
 },
 "bufferViews": [
  {
   "buffer": 0,
   "byteOffset": 0,
   "byteLength": 49380,
   "target": 34962,
   "byteStride": 12
  },
  {
   "buffer": 0,
   "byteOffset": 49380,
   "byteLength": 49380,
   "target": 34962,
   "byteStride": 12
  },
  {
   "buffer": 0,
   "byteOffset": 98760,
   "byteLength": 32920,
   "target": 34962,
   "byteStride": 8
  },
  {
   "buffer": 0,
   "byteOffset": 131680,
   "byteLength": 21582,
   "target": 34963
  },
  {
   "buffer": 0,
   "byteOffset": 153264,
   "byteLength": 92472,
   "target": 34962,
   "byteStride": 12
  },
  {
   "buffer": 0,
   "byteOffset": 245736,
   "byteLength": 92472,
   "target": 34962,
   "byteStride": 12
  },
  {
   "buffer": 0,
   "byteOffset": 338208,
   "byteLength": 61648,
   "target": 34962,
   "byteStride": 8
  },
  {
   "buffer": 0,
   "byteOffset": 399856,
   "byteLength": 43308,
   "target": 34963
  },
  {
   "buffer": 0,
   "byteOffset": 443164,
   "byteLength": 135540,
   "target": 34962,
   "byteStride": 12
  },
  {
   "buffer": 0,
   "byteOffset": 578704,
   "byteLength": 135540,
   "target": 34962,
   "byteStride": 12
  },
  {
   "buffer": 0,
   "byteOffset": 714244,
   "byteLength": 90360,
   "target": 34962,
   "byteStride": 8
  },
  {
   "buffer": 0,
   "byteOffset": 804604,
   "byteLength": 77322,
   "target": 34963
  },
  {
   "buffer": 0,
   "byteOffset": 881928,
   "byteLength": 668412,
   "target": 34962,
   "byteStride": 12
  },
  {
   "buffer": 0,
   "byteOffset": 1550340,
   "byteLength": 668412,
   "target": 34962,
   "byteStride": 12
  },
  {
   "buffer": 0,
   "byteOffset": 2218752,
   "byteLength": 445608,
   "target": 34962,
   "byteStride": 8
  },
  {
   "buffer": 0,
   "byteOffset": 2664360,
   "byteLength": 316128,
   "target": 34963
  },
  {
   "buffer": 0,
   "byteOffset": 2980488,
   "byteLength": 240,
   "target": 34962,
   "byteStride": 12
  },
  {
   "buffer": 0,
   "byteOffset": 2980728,
   "byteLength": 240,
   "target": 34962,
   "byteStride": 12
  },
  {
   "buffer": 0,
   "byteOffset": 2980968,
   "byteLength": 160,
   "target": 34962,
   "byteStride": 8
  },
  {
   "buffer": 0,
   "byteOffset": 2981128,
   "byteLength": 54,
   "target": 34963
  },
  {
   "buffer": 0,
   "byteOffset": 2981184,
   "byteLength": 3924,
   "target": 34962,
   "byteStride": 12
  },
  {
   "buffer": 0,
   "byteOffset": 2985108,
   "byteLength": 3924,
   "target": 34962,
   "byteStride": 12
  },
  {
   "buffer": 0,
   "byteOffset": 2989032,
   "byteLength": 2616,
   "target": 34962,
   "byteStride": 8
  },
  {
   "buffer": 0,
   "byteOffset": 2991648,
   "byteLength": 2418,
   "target": 34963
  },
  {
   "buffer": 0,
   "byteOffset": 2994068,
   "byteLength": 11832,
   "target": 34962,
   "byteStride": 12
  },
  {
   "buffer": 0,
   "byteOffset": 3005900,
   "byteLength": 11832,
   "target": 34962,
   "byteStride": 12
  },
  {
   "buffer": 0,
   "byteOffset": 3017732,
   "byteLength": 7888,
   "target": 34962,
   "byteStride": 8
  },
  {
   "buffer": 0,
   "byteOffset": 3025620,
   "byteLength": 5868,
   "target": 34963
  },
  {
   "buffer": 0,
   "byteOffset": 3031488,
   "byteLength": 8844,
   "target": 34962,
   "byteStride": 12
  },
  {
   "buffer": 0,
   "byteOffset": 3040332,
   "byteLength": 8844,
   "target": 34962,
   "byteStride": 12
  },
  {
   "buffer": 0,
   "byteOffset": 3049176,
   "byteLength": 5896,
   "target": 34962,
   "byteStride": 8
  },
  {
   "buffer": 0,
   "byteOffset": 3055072,
   "byteLength": 4206,
   "target": 34963
  }
 ],
 "buffers": [
  {
   "byteLength": 3059280,
   "uri": "data:application/octet-stream;base64,"
  }
 ],
 "materials": [
  {
   "name": "Platinum",
   "pbrMetallicRoughness": {
    "baseColorFactor": [
     0.8980392217636108,
     0.8980392217636108,
     0.8980392217636108,
     1
    ],
    "roughnessFactor": 0.25,
    "metallicFactor": 0
   },
   "doubleSided": true
  },
  {
   "name": "Red",
   "pbrMetallicRoughness": {
    "baseColorFactor": [
     1,
     0,
     0,
     1
    ],
    "roughnessFactor": 0.25,
    "metallicFactor": 0
   },
   "doubleSided": true
  },
  {
   "name": "Glaucous",
   "pbrMetallicRoughness": {
    "baseColorFactor": [
     0.3803921639919281,
     0.47843137383461,
     0.7882353067398071,
     1
    ],
    "roughnessFactor": 0.25,
    "metallicFactor": 0
   },
   "doubleSided": true
  },
  {
   "name": "Beau blue",
   "pbrMetallicRoughness": {
    "baseColorFactor": [
     0.7921568751335144,
     0.8196078538894653,
     0.9333333373069763,
     1
    ],
    "roughnessFactor": 0.25,
    "metallicFactor": 0
   },
   "doubleSided": true
  },
  {
   "name": "Black",
   "pbrMetallicRoughness": {
    "baseColorFactor": [
     0,
     0,
     0,
     1
    ],
    "roughnessFactor": 0.25,
    "metallicFactor": 0
   },
   "doubleSided": true
  },
  {
   "name": "Grullo",
   "pbrMetallicRoughness": {
    "baseColorFactor": [
     0.6470588445663452,
     0.6196078658103943,
     0.5882353186607361,
     1
    ],
    "roughnessFactor": 0.25,
    "metallicFactor": 0
   },
   "doubleSided": true
  },
  {
   "name": "White",
   "pbrMetallicRoughness": {
    "roughnessFactor": 0.25,
    "metallicFactor": 0
   },
   "doubleSided": true
  },
  {
   "name": "Blue",
   "pbrMetallicRoughness": {
    "baseColorFactor": [
     0,
     0,
     1,
     1
    ],
    "roughnessFactor": 0.25,
    "metallicFactor": 0
   },
   "doubleSided": true
  }
 ],
 "meshes": [
  {
   "primitives": [
    {
     "indices": 3,
     "material": 0,
     "mode": 4,
     "attributes": {
      "POSITION": 0,
      "NORMAL": 1,
      "TEXCOORD_0": 2
     }
    }
   ]
  },
  {
   "primitives": [
    {
     "indices": 7,
     "material": 7,
     "mode": 4,
     "attributes": {
      "POSITION": 4,
      "NORMAL": 5,
      "TEXCOORD_0": 6
     }
    }
   ]
  },
  {
   "primitives": [
    {
     "indices": 11,
     "material": 3,
     "mode": 4,
     "attributes": {
      "POSITION": 8,
      "NORMAL": 9,
      "TEXCOORD_0": 10
     }
    }
   ]
  },
  {
   "primitives": [
    {
     "indices": 15,
     "material": 4,
     "mode": 4,
     "attributes": {
      "POSITION": 12,
      "NORMAL": 13,
      "TEXCOORD_0": 14
     }
    }
   ]
  },
  {
   "primitives": [
    {
     "indices": 19,
     "material": 5,
     "mode": 4,
     "attributes": {
      "POSITION": 16,
      "NORMAL": 17,
      "TEXCOORD_0": 18
     }
    }
   ]
  },
  {
   "primitives": [
    {
     "indices": 23,
     "material": 1,
     "mode": 4,
     "attributes": {
      "POSITION": 20,
      "NORMAL": 21,
      "TEXCOORD_0": 22
     }
    }
   ]
  },
  {
   "primitives": [
    {
     "indices": 27,
     "material": 6,
     "mode": 4,
     "attributes": {
      "POSITION": 24,
      "NORMAL": 25,
      "TEXCOORD_0": 26
     }
    }
   ]
  },
  {
   "primitives": [
    {
     "indices": 31,
     "material": 2,
     "mode": 4,
     "attributes": {
      "POSITION": 28,
      "NORMAL": 29,
      "TEXCOORD_0": 30
     }
    }
   ]
  }
 ],
 "nodes": [
  {
   "name": "Assem1",
   "rotation": [
    0.7071067811865475,
    0,
    0,
    0.7071067811865476
   ],
   "children": [
    1,
    2,
    3,
    4,
    5,
    7,
    8,
    11
   ]
  },
  {
   "name": "hand1",
   "translation": [
    0,
    0.006187243852764368,
    0
   ],
   "rotation": [
    -0.5875519635676298,
    0.3934243142462618,
    0.3934243142462616,
    0.5875519635676301
   ],
   "children": [
    10
   ]
  },
  {
   "name": "Pice6",
   "translation": [
    0,
    0.007203243672847748,
    0
   ],
   "rotation": [
    0,
    0.7071067811865475,
    0,
    0.7071067811865476
   ],
   "children": [
    12
   ]
  },
  {
   "name": "Pice7",
   "translation": [
    0,
    0.014203243888914585,
    0
   ],
   "rotation": [
    0.21697178569886774,
    0.6729957193604096,
    0.6729957193604098,
    -0.21697178569886758
   ],
   "children": [
    9
   ]
  },
  {
   "name": "a",
   "translation": [
    -0.013571645133197308,
    0.005608123727142811,
    0.14812909066677094
   ],
   "rotation": [
    -0.7066760356374976,
    -0.02467766950583811,
    -0.02467766950583811,
    0.7066760356374977
   ],
   "children": [
    6
   ]
  },
  {
   "name": "Merged - Platinum",
   "mesh": 0
  },
  {
   "name": "Merged - Blue",
   "mesh": 1
  },
  {
   "name": "Merged - Beau blue",
   "mesh": 2
  },
  {
   "name": "Merged - Black",
   "mesh": 3
  },
  {
   "name": "Pice7",
   "mesh": 4
  },
  {
   "name": "Merged - Red",
   "mesh": 5
  },
  {
   "name": "Merged - White",
   "mesh": 6
  },
  {
   "name": "Merged - Glaucous",
   "mesh": 7
  }
 ],
 "scene": 0,
 "scenes": [
  {
   "nodes": [
    0
   ]
  }
 ]
}